<svg xmlns="http://www.w3.org/2000/svg" version="1.1" xmlns:xlink="http://www.w3.org/1999/xlink" xmlns:svgjs="http://svgjs.dev/svgjs" width="1000" height="1000" viewBox="0 0 1000 1000"><rect width="1000" height="1000" fill="#000000"></rect><g transform="matrix(0.7,0,0,0.7,150.0000000000001,106.25)"><svg viewBox="0 0 320 360" data-background-color="#dedede" preserveAspectRatio="xMidYMid meet" height="1125" width="1000" xmlns="http://www.w3.org/2000/svg" xmlns:xlink="http://www.w3.org/1999/xlink"><g id="tight-bounds" transform="matrix(1,0,0,1,-5.684341886080802e-14,0)"><svg viewBox="0 0 320 360" height="360" width="320"><g><svg></svg></g><g><svg viewBox="0 0 320 360" height="360" width="320"><g><path xmlns="http://www.w3.org/2000/svg" d="M85.508 32.884c0-1.117 0.558-2.233 1.675-2.233 1.117 0 2.233 0.558 2.234 2.233 0.558 0 1.675 0 2.233-0.558 2.233 0 4.467-0.558 6.141 0 1.675 0.558 2.792 0.558 4.467 1.117 1.675 0.558 2.792 0 3.908-0.559 2.233-0.558 3.908-1.675 6.141-2.233 1.117-0.558 1.675-0.558 2.792-0.558 1.117-0.558 2.233-0.558 3.908-1.117 2.792-0.558 5.583-1.117 7.817-2.233 2.233-1.117 4.467-1.117 6.699-1.675 1.117 0 1.675-0.558 2.792-1.117 0.558 0 0.558-0.558 1.116-1.116 1.117-0.558 1.675-1.117 2.792-0.559 0.558 0.558 1.675 0.558 2.233 0h0.559c3.35 0 6.7-0.558 10.608 0 0.558 0 1.117 0 1.116 0 1.675-1.117 3.908-1.117 6.142-1.116 0.558 0 1.675 0 2.233 0h0.558c2.233 0 4.467 0 6.142 0.558 1.675 0 2.792 0.558 4.466 1.117 1.675 0 2.792 0 4.467 0.558 1.117 0 2.233 0 3.35 0 0.558 0 1.117 0 1.116 0 2.233 0.558 4.467 0.558 6.7 0.558 1.675 0.558 3.35 1.117 5.583 1.117 0.558 0 1.117 0 1.675 0 0.558 0 1.117 0.558 1.675 0.558l0.558 0.559c2.233 0 3.908 1.117 6.142 1.116 0.558 0 1.675 0 2.233 0.559 1.675 1.117 3.908 1.675 6.141 1.675 1.117 0 1.675 0.558 2.234 1.116 1.675 0.558 2.792 1.117 4.466 1.675 1.117 0.558 2.233 0 3.35 0.558 1.675 0.558 3.908 1.117 5.583 2.792 1.117 1.117 2.233 1.117 3.908 2.233 0.558 0 1.117 0.558 1.675 1.117 1.675 1.117 3.35 2.233 5.025 2.791 0.558 0 1.117 0.558 1.675 0.559 1.675 1.117 3.35 2.792 5.583 3.908 1.117 0.558 1.675 1.117 2.792 1.675h0.558c1.675 1.675 3.908 2.792 5.583 4.466 1.675 1.675 2.792 2.792 5.025 3.909 0 0 0 0 0 0.558 0.558 1.117 1.117 1.675 2.233 2.233 1.117 0.558 1.675 1.117 2.234 1.675 1.675 1.117 3.35 2.233 4.466 3.35 0.558 0.558 1.117 1.117 2.233 2.233 0.558 0.558 1.117 1.117 1.675 1.117 2.233 0.558 3.35 2.233 5.025 3.908 1.117 1.117 2.792 2.792 3.908 3.908 0.558 0.558 1.117 1.675 1.675 2.792 1.117 3.35 2.792 6.7 4.467 9.491 0 0 0 0.558 0.558 1.117v0.558c1.117 1.117 1.675 2.792 2.792 3.908 0.558 0.558 0.558 1.117 1.116 1.675 1.117 1.675 1.675 3.908 2.792 5.583 1.675 2.792 2.792 5.583 3.908 8.375v0.558c0.558 1.117 1.117 2.233 1.675 3.908 0 1.117 1.117 2.233 1.675 3.909 0.558 2.792 2.233 5.583 2.791 8.933 0 0.558 0.558 1.117 0.559 2.233 0.558 1.675 1.117 3.35 1.675 5.025 0 0.558 0.558 1.117 1.116 1.675 1.117 1.117 1.117 2.233 1.117 3.35-0.558 2.233 0 4.467 0.558 6.699 0 0.558 0 1.117 0 2.234 0.558 2.233 1.117 5.025 1.117 7.258 0 0.558 0 1.675 0 2.233 0 1.675 0.558 3.35 1.675 5.025 0 0.558 0.558 0.558 0.558 0.558 0.558 0.558 1.117 1.675 1.675 2.233 0.558 0.558 0.558 0.558 1.117 1.117 1.117 1.117 1.675 2.233 1.675 3.908 0 0.558-0.558 1.675-0.559 2.233 0 0.558 0 1.675 0.559 2.234 0.558 0.558 0.558 1.117 0.558 1.675 0 0.558-0.558 1.117-1.117 1.116v0c-0.558 1.675-2.792 2.233-3.35 3.908-0.558 2.233-1.117 4.467-1.674 6.7-0.558 1.675-0.558 2.792-0.559 4.467 0 1.675-0.558 2.792-0.558 4.466-0.558 2.233-1.117 4.467-1.675 6.7 0 1.117-0.558 2.233-0.558 3.35 0.558 0.558 1.117 1.117 1.675 1.116 1.117 1.117 2.233 2.233 3.349 3.35 0.558 0.558 0.558 1.117 0 1.117-0.558 0.558-1.117 0.558-1.674 0.558-0.558-0.558-1.675-1.117-2.234-1.116-0.558-0.558-1.675-1.117-2.791-0.559 0 1.117-0.558 2.233-0.559 2.792-0.558 1.117-1.117 2.792-1.116 3.908-0.558 2.233-1.675 3.908-2.233 6.142-1.117 2.792-2.233 5.025-3.35 7.258-0.558 1.117-1.117 2.233-1.675 3.35v0c0 1.675-1.675 3.35-2.234 5.024-1.117 2.233-2.233 4.467-3.349 7.258-0.558 1.117-1.117 2.233-1.675 2.792-1.117 2.792-2.233 5.025-3.909 7.258-1.117 1.675-2.233 2.792-3.349 3.35-1.117 1.117-2.233 2.233-3.35 3.35-0.558 0.558-1.117 1.117-1.675 1.675-0.558 0.558-0.558 0.558-1.117 1.116-1.117 1.675-2.792 2.792-3.908 4.467-1.117 1.117-1.675 2.233-3.35 3.35-1.117 1.117-2.233 2.792-3.908 3.35-0.558 0.558-1.117 1.675-1.675 2.233-0.558 0.558-1.117 1.675-1.675 2.233 0 1.117 0.558 2.233 0.558 2.792 0 1.675-1.675 2.233-2.791 1.116-1.675-1.117-1.675-1.117-3.35 0-1.675 1.117-3.35 2.792-5.583 3.35-0.558 0-0.558 0.558-1.117 0.559-1.117 0.558-1.675 1.675-2.792 2.233-1.117 1.117-2.792 1.675-3.908 2.791-0.558 0.558-1.117 0.558-1.675 1.117-1.675 1.117-3.35 1.675-5.024 3.35-0.558 0.558-1.117 0.558-1.675 1.117 0 0.558 0 0.558 0 1.116 0 1.117-1.117 2.233-2.792 1.675-1.675-0.558-2.792 0-4.466 0-1.675 0.558-3.35 1.675-5.025 2.233-0.558 0-1.117 0.558-1.675 1.117-1.675 1.117-3.35 1.675-5.025 2.233-1.117 0-2.233 1.117-3.35 1.117-0.558 0-1.117 0.558-1.675 0.558h-0.558c-2.233 1.675-4.467 2.792-6.7 4.467-0.558 0-0.558 0.558-1.117 1.116-0.558 1.117-1.117 1.675-2.233 1.675-2.792 0-3.908 2.233-3.35 4.467 0 0.558 0.558 1.117 0.559 1.675 0.558 1.117 0 2.233-0.559 2.791-0.558 0.558-2.233 0.558-2.791-0.558-1.117-1.117-1.675-2.233-2.234-3.908-0.558-1.117-1.675-2.233-2.791-2.792-1.117-0.558-2.233-0.558-3.35 0-0.558 0-0.558 0.558-1.117 0.558-1.117 1.117-2.792 1.675-4.466 1.117-0.558 0-1.675 0-1.675 0.558-0.558 0.558-0.558 1.675 0 2.234 1.117 1.117 0.558 2.233 0.558 3.908 0 2.233-1.675 3.35-3.908 2.233-0.558-0.558-1.117-0.558-1.675-1.117-0.558 0-0.558-0.558-0.558-1.116-0.558-0.558-0.558-1.675-1.117-2.792-1.117 0.558-2.233 0.558-3.35 1.117-0.558 0-1.117 0.558-1.675 0.558-1.675 0-2.233 0-2.791-1.675-0.558-1.675-1.675-1.675-2.792-2.233-2.233-0.558-5.025-0.558-7.258-1.675h-0.558c-2.233-1.675-4.467-1.675-7.258-1.675-1.675 0-3.35 0.558-5.025 0.558-1.675 0-2.792 0.558-3.908 1.675-0.558 0.558-1.117 1.117-1.675 1.117-0.558-0.558-0.558-1.117-1.117-1.675v-0.558c0-0.558-0.558-1.117-1.116-0.559-1.117 0.558-2.233-0.558-3.35-1.116-0.558-0.558-1.675-1.675-1.675-2.792-0.558-0.558-1.117-1.117-1.675-1.116-1.117 0-2.792-0.558-3.908-0.559-0.558 0-1.117 0-1.117-0.558-0.558-0.558-1.117-0.558-2.233-0.558-0.558 0-0.558-0.558-1.117-0.559 1.117 1.117 1.675 2.233 2.233 3.35 0 0.558 0.558 0.558 0.559 1.117 0.558 1.117 0 1.675-1.675 1.675-1.117 0-1.117 0-1.675 0.558 0 1.117 0 1.675 0 2.792 0 0.558 0 1.117-1.117 1.675 0 0-0.558 0-0.558 0.558-0.558 0.558-0.558 1.117 0 1.675 1.675 1.117 2.792 1.675 4.466 2.233 1.675 0 1.675 1.117 2.234 2.233 0.558 1.117 0 1.675-0.559 2.792-1.117 1.117-2.233 2.233-3.35 3.35-1.675 0.558-2.792 2.233-4.466 2.233-1.117 0-2.233-0.558-2.792-1.675-0.558-2.792-0.558-5.025 0.559-7.816 0-0.558 0.558-1.117 0-1.675-5.025 0-5.025-1.117-5.025-1.675 0-1.117 0.558-1.675 0.558-2.792 0.558-1.117 0-1.675-1.675-2.233-0.558 0-1.117 0-1.675 0-0.558 0-0.558-0.558-1.675-0.558 1.117-0.558 1.675-0.558 2.792-1.117-0.558-2.233-1.117-3.908-2.792-5.025-0.558-0.558-1.117-1.117-1.116-2.233 0-1.675-1.117-2.792-1.675-3.908-1.117-1.675-3.35-2.233-5.025-2.233-1.675-0.558-2.792-0.558-4.467-1.117-1.675-0.558-3.35-2.233-5.024-2.792-0.558-0.558-1.117-1.117-2.234-1.674-2.233-1.117-3.908-2.792-5.583-4.467-1.117-0.558-1.675-1.675-2.791-2.233-1.117-1.117-1.675-2.233-2.792-2.792-1.117-1.117-2.233-2.233-3.908-3.35-1.675-1.117-2.792-2.792-4.467-4.466-1.117-1.675-2.792-2.792-4.466-3.908-0.558 0-1.117 0-1.675 0-0.558 0-1.117 0.558-1.675 0.558-1.675 0.558-2.792 1.675-4.467 2.233 0.558-0.558 0.558-0.558 0-1.675-0.558-0.558-1.117-1.117-1.674-1.116-1.117 0-2.233 0-3.35 0-2.233 0-4.467 0.558-6.7 0.558-1.675 0-3.908 0.558-5.583 1.117 0.558 1.117 0.558 1.675 1.116 2.791-1.117 0.558-2.233 0.558-3.35 0.558-0.558 0-1.675 0.558-2.233 1.117-0.558 0-0.558 0.558-1.116 0-1.117-0.558-2.233 0-3.35 0.558h-0.559c0 0 0-0.558 0.559-0.558 0.558-0.558 1.117-1.117 1.675-1.675 0.558-0.558 1.117-0.558 2.233-1.117-0.558-0.558-0.558-1.117-0.558-1.116-0.558-0.558-1.117-0.558-1.675 0-0.558 0.558-1.117 1.117-1.675 1.675-0.558 0.558-1.117 0.558-1.675 0-0.558-0.558-0.558-1.117 0-1.675 0-0.558 0.558-1.117 1.116-1.675 0.558-0.558 0.558-1.117 1.117-1.675-1.117-1.117-1.675-2.233-2.792-2.792-1.675-1.117-3.35-2.792-4.466-4.466-1.117-2.233-2.792-3.908-5.025-5.025-0.558-0.558-1.117-1.117-1.675-1.675-0.558-0.558-0.558-0.558-1.116-1.117-1.675 0.558-2.792 1.675-4.467 2.234-0.558 0-0.558 0.558-1.117 1.116-0.558 1.117-1.675 1.117-2.791 1.117-0.558 0-1.117-0.558-0.558-1.117 0.558-1.117 1.117-2.233 2.791-1.675 0 0 0.558 0 0.558-0.558 1.117-1.117 2.233-2.792 3.909-3.908-0.558-1.675-1.675-2.792-2.234-3.908-0.558-0.558-0.558-1.117-0.558-2.234 0-0.558 0-0.558-0.558-1.116 0 0-0.558 0-1.117 0.558-0.558 0.558-1.675 1.117-2.791 0 0-0.558 0-1.117 0.558-1.675l0.558-0.558c1.675-0.558 1.675-2.233 1.675-3.908v-0.559c-0.558-1.117-0.558-1.675 0.558-2.791 1.675-1.117 3.35-3.35 3.909-5.025 0.558-1.117 1.675-1.675 2.791-2.792 1.117-1.117 2.233-2.233 2.792-3.908h0.558c2.233 0.558 2.792-1.117 3.908-2.791 0-0.558 0-1.117 0.559-1.117 1.117-1.117 1.117-2.233 0.558-3.908 0-0.558-0.558-1.675-0.558-2.233 0-0.558 0-0.558-0.559-1.117-1.675-1.117-1.675-2.233 0-3.35 1.117-0.558 1.117-1.675 1.675-2.233 0.558-1.117 0.558-2.233 0.559-3.908-0.558-1.675-0.558-3.908-1.117-5.583-0.558-2.233-1.117-5.025-1.675-7.259 0-0.558 0-0.558 0-1.116 0-1.675 0-2.792-0.558-4.467-0.558-0.558-0.558-1.675-0.559-2.233-0.558-1.675-1.117-2.792-2.791-3.35-1.675-1.117-3.908-1.675-5.583-2.791-0.558-0.558-1.117 0-1.675 0.558-0.558 1.117-1.675 2.233-2.234 3.35-0.558 0.558-1.117 1.675-1.675 2.791-1.117 1.117-3.35 2.233-5.024 0.559-0.558-1.117-1.117-1.675 0-2.792 1.117-1.675 2.233-3.35 3.908-4.466 0.558-0.558 1.117-1.675 1.675-2.234 0.558-1.117 0.558-2.233 0.558-3.35-0.558-2.233-1.117-4.467-1.117-7.258 0-2.792 0-5.025 0.559-7.816 0.558-1.117 0.558-2.792 1.116-3.908 0-0.558 0.558-1.675 1.117-2.233 1.117-1.117 2.233-2.233 2.792-3.909 0.558-1.675 1.675-3.35 1.675-5.024 0-0.558 0.558-1.117 0.558-1.675 0-0.558 0.558-1.675 0.558-2.234-0.558-1.675 0-2.792 0.558-3.908 0.558-1.117 1.117-2.792 1.675-3.908 1.117-2.233 1.117-5.025 3.35-7.258 0.558-1.117 1.117-2.233 1.675-3.35 0.558-2.233 1.675-3.908 2.792-5.583 0.558-0.558 0.558-0.558 0.558-1.117 0.558-1.675 1.675-3.35 2.792-5.025 1.117-1.675 1.117-3.35 1.675-5.024 0-0.558 0-1.117 0.558-1.675 1.675-1.675 1.117-3.908 0.558-6.142-1.117-2.792-1.675-5.583-1.116-8.374 0-0.558 0-1.117 0.558-1.117 0.558-1.117 0.558-1.675 1.117-2.792v-0.558c1.117-1.117 2.233-2.792 3.908-3.35 2.233-1.117 4.467-1.675 7.258-2.233 2.233 0 4.467-1.117 6.141-3.35 0-0.558 0.558-0.558 1.117-1.117l0.558-0.558c0.558-1.117 1.117-1.675 1.675-2.233 1.117-1.117 2.233-2.792 3.35-3.908 1.117-1.117 2.233-2.792 3.908-4.467l0.559-0.558c1.117-1.117 2.233-2.233 3.349-2.792 1.117-1.117 2.233-2.233 3.35-3.35 1.117-1.117 1.675-2.233 2.792-3.35 1.117-0.558 2.233-1.675 3.35-2.791 1.117-1.117 2.233-2.233 2.791-2.792 1.117-1.117 2.792-2.233 3.909-2.791 1.117-0.558 2.233-1.117 2.791-2.792 0.558-1.675 1.117-2.792 1.675-4.466 0-1.117 0.558-2.233 1.117-3.35 0.558 0 1.117 0 2.233-0.558-0.558-0.558-1.117-0.558-1.117-1.117 0-0.558 0.558-1.117 0.559-1.117 0-0.558 0.558-1.117 0.558-1.675 0 0 0.558 0 0.558-0.558 0 0 0.558 0 0.559-0.558-1.117 0.558-1.675 0-2.234-0.559 0.558 0.558 1.117 0.558 2.234 1.117 0 0 0.558 0 0.558-0.558 0-0.558 0-1.117 0-1.117 0 0-0.558 0-1.117 0-0.558 0-1.117 0.558-1.675 0.558zM182.097 295.292c0-0.558-0.558-0.558-0.559-1.117-0.558-1.117 0-1.675 0.559-2.233 0.558-0.558 1.117-0.558 2.233-0.558 1.117 0.558 1.675 1.117 1.675 2.233 0 0.558 0 1.675 0 2.233 0.558 2.233 0.558 2.233 2.791 2.233 1.117 0 2.233 0 3.35 0 2.233-0.558 4.467-1.675 6.7-2.233 2.233-0.558 4.467-1.117 6.7-1.675 0.558 0 1.117 0 2.233 0 2.233 0.558 3.908 0 5.583-1.117 0.558-0.558 1.675-0.558 2.233-1.116 1.117-0.558 2.233-0.558 3.35-1.117 2.792-1.675 5.583-2.792 7.817-4.466 1.675-1.117 3.35-2.233 5.024-3.35 1.675-1.117 3.35-2.233 5.025-3.35 1.117-0.558 2.792-1.675 3.908-2.792 2.233-1.675 3.908-3.35 6.142-4.466 1.117-0.558 1.675-1.117 2.233-1.675 1.117-0.558 1.675-1.675 2.792-2.233 0.558-0.558 1.117-1.117 2.233-1.675 0.558-0.558 0.558-0.558 0.558-1.117 1.675-1.117 3.35-3.35 4.467-5.025 1.117-1.117 2.233-2.233 3.35-3.908 1.675-1.675 2.792-3.908 4.466-6.141 1.117-1.117 2.233-2.792 2.792-3.909 1.117-2.233 2.233-4.467 3.908-6.141v-0.558c1.117-2.233 2.233-4.467 3.35-6.7 1.675-2.792 2.792-6.141 4.466-8.933 0.558-1.117 1.117-2.233 1.117-3.35 1.117-2.233 1.675-4.467 2.233-6.7 0-0.558 0-0.558 0.559-1.116 1.675-3.35 2.792-6.7 3.349-10.608 0.558-2.233 1.117-4.467 1.675-6.7 1.117-3.35 1.117-6.141 1.675-9.491 0.558-2.233 0.558-5.025 0.559-7.258 0.558-3.35 0.558-7.258 0-10.608 0-2.792-0.558-6.141-0.559-8.933 0-2.792-0.558-5.025-1.116-7.817-0.558-2.792-1.117-5.025-1.675-7.816-1.117-2.233-1.675-4.467-2.234-7.258-0.558-2.233-1.675-3.908-1.674-6.142 0-1.675-0.558-3.35-2.234-3.908-1.675-0.558-2.792-1.117-4.466-2.233-3.35-2.233-5.025-5.025-4.467-8.375 0-1.675 0.558-3.908 1.117-5.583 0.558-1.675 1.117-3.35 0-4.467-0.558-1.675-1.675-2.792-2.233-3.908-1.117-1.675-1.675-2.792-2.792-3.908-1.117-2.233-2.233-4.467-3.908-6.141-2.233-2.792-3.908-5.583-6.7-7.817l-0.558-0.558c-1.675-2.233-3.35-4.467-5.583-6.142-1.117-1.117-2.233-2.233-3.35-2.791-0.558-0.558-1.117-1.117-2.233-1.675-1.675-1.117-3.35-1.675-4.467-2.792-1.675-1.675-3.908-2.792-5.583-3.908 0 0-0.558 0-0.558-0.558-2.233-1.117-3.908-1.675-6.142-2.792-2.233-1.117-4.467-1.675-6.7-1.675-0.558 0-0.558 0-1.116 0-0.558-0.558-1.675-0.558-2.233-0.558-0.558 0-0.558 0-1.117 0-1.117-0.558-2.792 0-3.908 0-2.233 0.558-4.467 0.558-6.7-0.558-2.792-1.117-5.025-2.233-7.258-3.35-1.675-1.117-2.792-2.233-4.467-3.35-3.35-2.792-6.7-6.141-10.608-8.933 0.558-2.792-0.558-3.35-2.791-3.35-1.117 0-2.233 0.558-3.35 1.117-0.558 0.558-0.558 0.558-1.117 1.116-1.675 1.117-2.792 2.792-4.466 3.909-2.792 1.675-3.908 1.117-6.142 0-0.558-0.558-1.117-1.117-1.675-1.675-1.117-1.117-2.233-2.792-2.791-3.909-1.117-2.233-3.35-2.233-5.583-2.233-1.117 0-2.792 0.558-3.908 0.558-2.233 0-4.467 1.117-5.584 2.792-1.117 1.675-2.233 3.35-3.908 5.025-0.558 0.558-1.675 1.117-2.233 2.233-1.117 1.117-2.233 1.117-3.35 0-0.558-0.558-1.117-0.558-1.675-1.117-0.558 0.558-1.117 1.117-1.117 1.675-0.558 1.117-1.117 2.233-1.674 3.909-0.558 1.675-1.675 3.35-2.792 4.466-0.558 0.558-0.558 0.558-1.117 1.117-0.558 1.117-2.233 1.675-3.35 1.675-1.117 1.117-2.233 2.792-2.791 3.908-0.558 1.117-1.117 2.233-1.675 3.908-0.558 0.558-0.558 1.675-1.117 2.233-0.558 1.117-0.558 1.675-0.558 2.792 0.558 1.675-0.558 2.233-2.233 2.791-1.117 0-1.117 0-1.675 1.117 0 1.675 0.558 2.792 1.116 4.467 0.558 0.558 1.117 1.675 1.117 2.233 0 1.117 0.558 1.675 1.675 2.233 0.558 0.558 1.117 1.117 1.675 1.117 0.558 0 0.558 0.558 1.117 0.558 0.558 0.558 1.117 0 1.116-0.558 0.558-1.675 1.117-3.35 1.117-5.025 0.558-2.233 0.558-3.908 1.116-6.142 0.558-1.117 1.117-1.675 1.675-2.233 0 0 0.558 0 1.117 0v0.559c-0.558 2.792-1.675 6.141-2.233 8.933-0.558 1.117-0.558 2.233-1.117 3.349 0 0.558-0.558 1.117-1.116 1.117-1.117 0.558-2.233 1.117-3.35 1.117-0.558 0-1.117 0-1.675 0-1.117-0.558-2.233-1.675-3.35-2.234-0.558-0.558-1.117-1.117-1.675-1.674-0.558-1.117-1.117-2.233-1.675-3.35-0.558-1.117-1.117-1.675-2.233-2.234-0.558-0.558-1.117-0.558-1.675-1.116-1.117-1.117-2.233-1.675-3.908-1.675-0.558 0-1.675 0-2.234 0-0.558 0-1.675 0.558-2.233 1.116-1.117 0.558-1.675 0.558-2.791 0-2.792-1.117-5.583-0.558-8.375 0.559-1.117 0.558-2.233 1.117-3.35 1.116-2.792 0-5.025 0-7.816 0-2.792 0-5.025-0.558-7.817-1.116-1.117 0-2.233 0-3.35 0-2.233 0.558-2.792 2.233-2.233 4.466 0.558 2.233 1.117 5.025 1.117 7.258 0 1.675 0 3.35 0 5.025 0 1.117 0 1.675 0 2.792 0 1.675-0.558 3.35-0.559 5.025-0.558 3.35-2.233 6.141-4.466 8.374-1.675 1.675-3.908 3.35-6.142 3.908-1.117 0.558-2.233 1.117-3.908 1.675-2.792 1.117-5.025 3.35-6.7 6.142-0.558 1.117-1.117 2.233-1.674 3.35-1.117 1.675-1.675 2.792-2.792 4.466-0.558 1.117-1.675 2.233-2.233 3.35-0.558 1.117-1.675 1.675-1.675 2.792-1.117 2.233-1.675 4.467-2.792 6.699-0.558 1.117-0.558 2.792-1.116 3.909-1.117 2.233-1.117 4.467-1.117 7.258 0 0.558 0 1.117 0 2.233 0 2.792-0.558 6.141-0.558 8.933 0 2.792 0 5.583 0.558 8.375 0 1.117 0 2.792 0 3.908 0 2.233 0.558 5.025 0.558 7.258 0 2.233 0 5.025 1.117 7.258v0.558c0.558 2.233 0.558 4.467 1.116 6.7 0 0.558 0 1.117 0.559 1.675 1.117 3.35 1.675 6.141 2.791 9.491 0.558 2.233 1.675 4.467 2.234 6.7 0.558 2.233 2.792 4.467 3.349 7.258v0c1.675 3.35 3.35 6.7 5.584 10.05 0.558 1.117 1.675 2.233 2.233 3.35 1.117 1.675 1.675 3.35 2.791 4.466 0.558 1.117 1.675 2.233 2.234 2.792 0.558 1.117 1.117 2.233 2.233 3.35 1.117 1.117 2.233 2.792 3.35 3.908 1.675 2.792 3.908 5.025 6.141 6.7 1.117 1.117 2.233 1.675 3.35 2.791 0.558 0.558 1.117 0.558 1.117 1.117 0.558 0.558 1.117 1.117 2.233 1.675 4.467 2.233 7.816 5.583 11.725 8.933 1.675 1.675 3.35 3.35 5.583 4.466 2.233 1.675 3.908 3.35 6.7 3.908 0 0 0.558 0 0.558 0.559 1.117 1.117 2.792 1.675 3.908 2.233 2.233 1.117 5.025 2.233 7.258 3.35 0.558 0.558 1.675 0.558 2.233 1.117 1.675 0.558 3.35 1.117 5.025 1.674 1.675 0.558 2.792 1.117 4.467 1.117h0.558c1.117 0.558 1.675 0.558 2.792 0 0.558 0 1.117 0 1.116 0.558 0 0.558 0.558 0.558 1.117 0.559 0.558 0 1.117 0 2.233 0 0.558-0.558 0.558-1.117 1.117-2.234 0.558 0.558 1.117 0.558 1.116 0.559 0.558 1.117 1.675 1.117 2.792 1.116h0.558c1.117 0 1.675 0 2.233-0.558 0-0.558 1.117-0.558 1.675-0.558 1.675 0.558 3.35 0.558 5.025 1.116 1.117 0.558 2.792 0.558 3.35-0.558 0.558-0.558 1.117-1.117 2.233-0.558 1.117 0.558 1.675 0.558 2.792 0 0.558 0 1.117 0 1.117 0 1.675 0.558 2.792 0.558 4.466 1.116 2.233 0.558 2.233 0.558 3.908-1.116 0.558-0.558 1.675-0.558 2.233 0 0.558 1.117 0.558 1.675 0.559 2.791 0.558 0 0.558 0 1.116-0.558 0-1.117 0.558-1.117 1.675-1.675 0.558 0.558 0.558 0.558 1.117 0.558 1.117 1.117 1.675 1.117 2.233-0.558 0-0.558 0-1.117 0.559-1.116 0.558 0 1.117 0.558 1.116 0.558 0.558 1.117 1.675 1.675 2.233 2.791 1.117 1.117 2.792 1.117 3.35 0 0.558-0.558 1.117-0.558 1.675-0.558 0-0.558 0-1.117 0-1.675 1.675 1.117 1.117 1.117 0.559 1.117zM89.417 34.559c1.675 0.558 2.792 0.558 3.349-0.558-1.117 0.558-2.233-0.558-3.349 0.558z" fill="#ffffff" fill-rule="nonzero" stroke="none" stroke-width="1" stroke-linecap="butt" stroke-linejoin="miter" stroke-miterlimit="10" stroke-dasharray="" stroke-dashoffset="0" font-family="none" font-weight="none" font-size="none" text-anchor="none" style="mix-blend-mode: normal" data-fill-palette-color="tertiary"></path></g><g transform="matrix(1,0,0,1,77.94715208563748,90)"><svg viewBox="0 0 164.10569582872503 180" height="180" width="164.10569582872503"><g><svg viewBox="0 0 164.10569582872503 180" height="180" width="164.10569582872503"><g><svg viewBox="0 0 192 210.59598099550317" height="180" width="164.10569582872503"><g transform="matrix(1,0,0,1,0,119.57140518636027)"><svg viewBox="0 0 192 91.02457580914292" height="91.02457580914292" width="192"><g id="textblocktransform"><svg viewBox="0 0 192 91.02457580914292" height="91.02457580914292" width="192" id="textblock"><g><svg viewBox="0 0 192 65.28522804628999" height="65.28522804628999" width="192"><g transform="matrix(1,0,0,1,0,0)"><svg width="192" viewBox="3 -37.45000076293945 146.8800048828125 49.95000076293945" height="65.28522804628999" data-palette-color="#374151"><path d="M17.95 0L6.6 0Q5.1 0 4.05-1.05 3-2.1 3-3.6L3-3.6 3-11.35 7.65-10.3 7.65-6.45Q7.65-5.7 8.18-5.18 8.7-4.65 9.4-4.65L9.4-4.65 15.1-4.65Q15.85-4.65 16.38-5.18 16.9-5.7 16.9-6.45L16.9-6.45 16.9-15.25Q16.9-16 16.38-16.53 15.85-17.05 15.1-17.05L15.1-17.05 6.6-17.05Q5.1-17.05 4.05-18.1 3-19.15 3-20.65L3-20.65 3-31.4Q3-32.9 4.05-33.95 5.1-35 6.6-35L6.6-35 17.95-35Q19.45-35 20.5-33.95 21.55-32.9 21.55-31.4L21.55-31.4 21.55-26 16.9-27.1 16.9-28.55Q16.9-29.3 16.38-29.83 15.85-30.35 15.1-30.35L15.1-30.35 9.4-30.35Q8.7-30.35 8.18-29.83 7.65-29.3 7.65-28.55L7.65-28.55 7.65-23.5Q7.65-22.75 8.18-22.23 8.7-21.7 9.4-21.7L9.4-21.7 17.95-21.7Q19.45-21.7 20.5-20.65 21.55-19.6 21.55-18.1L21.55-18.1 21.55-3.6Q21.55-2.1 20.5-1.05 19.45 0 17.95 0L17.95 0ZM29.75 0L25.05 0 25.05-36.4 29.75-37.45 29.75-25 35.7-25 34.6-20.3 29.75-20.3 29.75 0ZM49.3 0L38.84 0Q37.34 0 36.27-1.05 35.2-2.1 35.2-3.65L35.2-3.65 35.2-11.2Q35.2-12.7 36.27-13.78 37.34-14.85 38.84-14.85L38.84-14.85 42.75-14.85Q43.55-14.85 44.07-15.38 44.59-15.9 44.59-16.65L44.59-16.65 44.59-18.5Q44.59-19.25 44.07-19.78 43.55-20.3 42.75-20.3L42.75-20.3 37.34-20.3 38.4-25 45.65-25Q47.15-25 48.22-23.93 49.3-22.85 49.3-21.35L49.3-21.35 49.3 0ZM41.7-4.7L41.7-4.7 44.59-4.7 44.59-10.15 41.7-10.15Q40.95-10.15 40.42-9.63 39.9-9.1 39.9-8.35L39.9-8.35 39.9-6.5Q39.9-5.75 40.42-5.23 40.95-4.7 41.7-4.7ZM56.99 0L52.29 0 52.29-25 62.74-25Q64.24-25 65.32-23.93 66.39-22.85 66.39-21.35L66.39-21.35 66.39-15.9 61.69-16.95 61.69-18.45Q61.69-19.2 61.17-19.75 60.64-20.3 59.89-20.3L59.89-20.3 56.99-20.3 56.99 0ZM78.84 12.5L72.04 12.5Q70.59 12.5 69.49 11.45 68.39 10.4 68.39 8.85L68.39 8.85 68.39 3.4 73.09 4.5 73.09 6Q73.09 6.7 73.64 7.25 74.19 7.8 74.89 7.8L74.89 7.8 75.99 7.8Q76.79 7.8 77.29 7.25 77.79 6.7 77.79 6L77.79 6 77.79 0 72.04 0Q70.59 0 69.49-1.05 68.39-2.1 68.39-3.65L68.39-3.65 68.39-21.35Q68.39-22.9 69.49-23.95 70.59-25 72.04-25L72.04-25 82.49-25 82.49 8.85Q82.49 10.4 81.44 11.45 80.39 12.5 78.84 12.5L78.84 12.5ZM74.89-4.7L74.89-4.7 75.99-4.7Q76.79-4.7 77.29-5.25 77.79-5.8 77.79-6.5L77.79-6.5 77.79-20.3 74.89-20.3Q74.19-20.3 73.64-19.8 73.09-19.3 73.09-18.5L73.09-18.5 73.09-6.5Q73.09-5.8 73.64-5.25 74.19-4.7 74.89-4.7ZM99.09 0L88.64 0Q87.14 0 86.06-1.05 84.99-2.1 84.99-3.65L84.99-3.65 84.99-11.2Q84.99-12.7 86.06-13.78 87.14-14.85 88.64-14.85L88.64-14.85 92.54-14.85Q93.34-14.85 93.86-15.38 94.39-15.9 94.39-16.65L94.39-16.65 94.39-18.5Q94.39-19.25 93.86-19.78 93.34-20.3 92.54-20.3L92.54-20.3 87.14-20.3 88.19-25 95.44-25Q96.94-25 98.01-23.93 99.09-22.85 99.09-21.35L99.09-21.35 99.09 0ZM91.49-4.7L91.49-4.7 94.39-4.7 94.39-10.15 91.49-10.15Q90.74-10.15 90.21-9.63 89.69-9.1 89.69-8.35L89.69-8.35 89.69-6.5Q89.69-5.75 90.21-5.23 90.74-4.7 91.49-4.7ZM116.19 0L102.09 0 109.69-20.3 102.09-20.3 102.09-25 116.19-25 108.49-4.7 116.19-4.7 116.19 0ZM133.28 0L122.83 0Q121.33 0 120.26-1.07 119.18-2.15 119.18-3.65L119.18-3.65 119.18-21.4Q119.18-22.9 120.26-23.95 121.33-25 122.83-25L122.83-25 129.63-25Q131.18-25 132.23-23.95 133.28-22.9 133.28-21.4L133.28-21.4 133.28-13.8Q133.28-12.3 132.23-11.23 131.18-10.15 129.63-10.15L129.63-10.15 123.88-10.15 123.88-6.5Q123.88-5.75 124.41-5.23 124.93-4.7 125.73-4.7L125.73-4.7 132.23-4.7 133.28 0ZM123.88-18.5L123.88-14.85 126.78-14.85Q127.53-14.85 128.06-15.38 128.58-15.9 128.58-16.65L128.58-16.65 128.58-18.5Q128.58-19.25 128.06-19.78 127.53-20.3 126.78-20.3L126.78-20.3 125.73-20.3Q124.93-20.3 124.41-19.78 123.88-19.25 123.88-18.5L123.88-18.5ZM140.48 0L135.78 0 135.78-25 146.23-25Q147.73-25 148.81-23.93 149.88-22.85 149.88-21.35L149.88-21.35 149.88-15.9 145.18-16.95 145.18-18.45Q145.18-19.2 144.66-19.75 144.13-20.3 143.38-20.3L143.38-20.3 140.48-20.3 140.48 0Z" opacity="1" transform="matrix(1,0,0,1,0,0)" fill="#ffffff" class="wordmark-text-0" data-fill-palette-color="primary" id="text-0"></path></svg></g></svg></g><g transform="matrix(1,0,0,1,0,74.8119096637168)"><svg viewBox="0 0 192 16.212666145426113" height="16.212666145426113" width="192"><g transform="matrix(1,0,0,1,0,0)"><svg width="192" viewBox="-0.05000000074505806 -36.79999923706055 575.5499877929688 48.599998474121094" height="16.212666145426113" data-palette-color="#374151"><path d="M18.4-12.75L18.4-3 22.55-2.45 22.5 0 8.75 0 8.45-1.6Q9.85-2.35 12.4-3.3L12.4-3.3 12.4-12.5 3.1-29.85-0.05-30.25 0-32.7 12.35-32.7 12.65-31.1 9.6-29.75 14.65-20.2 16-16.05 16.25-16.05 23.1-29.75 19.25-30.25 19.3-32.7 30.9-32.7 31.2-31.1Q29.55-30.2 27.45-29.5L27.45-29.5 18.4-12.75ZM28.4-11.9L28.4-11.9Q28.4-17.5 31.73-21.05 35.05-24.6 40.1-24.6 45.15-24.6 48.38-21.03 51.6-17.45 51.6-11.65L51.6-11.65Q51.6-5.9 48.43-2.45 45.25 1 40.25 1L40.25 1Q35.1 1 31.75-2.63 28.4-6.25 28.4-11.9ZM42.8-3L42.8-3Q45.55-4.85 45.55-11.1L45.55-11.1Q45.55-15.4 44.13-18.18 42.7-20.95 39.75-20.95L39.75-20.95Q37.85-20.95 36.55-20L36.55-20Q34.5-17.45 34.5-12.25L34.5-12.25Q34.5-8.15 36.05-5.4 37.6-2.65 40.7-2.65L40.7-2.65Q41.7-2.65 42.8-3ZM81.2-4.2L81.8-2 76.25 0.8Q75.2 0.7 73.9-0.5 72.6-1.7 72.05-3.2L72.05-3.2Q67.05 0.2 62.9 0.8L62.9 0.8Q61.35 0.55 59.78-0.55 58.2-1.65 57.55-2.93 56.9-4.2 56.9-8.1L56.9-8.1 56.9-20.35 53.2-20.4 52.7-22.8Q56.2-24.25 60.55-24.45L60.55-24.45 60.55-24.4 62.75-22.45 62.75-7.85Q62.9-3.8 66-3.8L66-3.8Q68.35-3.8 71.7-5.7L71.7-5.7 71.7-20.35 68.25-20.45 67.75-22.85Q71.25-24.35 75.3-24.45L75.3-24.45 77.55-22.45 77.55-4.9Q77.55-3.85 78.85-3.85L78.85-3.85 81.2-4.2ZM104.2-23.05L104.2-23.05Q104.3-18.75 102.85-14.25L102.85-14.25 99.6-14.25 98.8-19.85Q95.4-17.6 92.9-14.45L92.9-14.45 92.9-3.75Q96.65-3.25 98.1-2.4L98.1-2.4 97.9 0 83.55 0 83.35-1.7Q84.95-2.5 87.05-3.15L87.05-3.15 87.05-20.35 83.3-20.4 82.8-22.8Q86.25-24.2 90.65-24.45L90.65-24.45 92.9-22.45 92.9-18.2 98-23.75Q99.2-24.25 100.55-24.25L100.55-24.25Q102.7-24.25 104.2-23.05ZM143.9-27.4L145-21.6Q142.25-21.75 140.2-20.8L140.2-20.8Q141.65-18.8 141.65-16.25L141.65-16.25Q141.65-12.5 138.53-10.13 135.4-7.75 130.75-7.75L130.75-7.75 129.05-7.85Q127.35-6.6 126.05-5.2L126.05-5.2Q129.85-5.15 134.88-4.2 139.9-3.25 143.35-2L143.35-2Q143.7-0.75 143.7 0.55L143.7 0.55Q143.7 5.15 139.35 8.47 135 11.8 129.1 11.8L129.1 11.8Q124.9 11.8 122 9.93 119.1 8.05 119.25 4.5L119.25 4.5 125-0.7 121.45-0.9 120.5-3.7Q123.1-6.65 125.95-8.55L125.95-8.55Q123.2-9.55 121.58-11.55 119.95-13.55 119.95-16.25L119.95-16.25Q119.95-19.95 123.08-22.45 126.2-24.95 130.85-24.95L130.85-24.95Q134.8-24.95 137.75-23.1L137.75-23.1Q139.5-26.9 143.9-27.4L143.9-27.4ZM133.7-11.15L133.7-11.15Q135.85-12.9 135.85-15.85L135.85-15.85Q135.85-18.25 134.2-20.03 132.55-21.8 130.3-21.8L130.3-21.8Q128.8-21.8 127.4-21.1L127.4-21.1Q125.85-19.4 125.85-16.55L125.85-16.55Q125.85-13.95 127.23-12.3 128.6-10.65 131-10.65L131-10.65Q132.1-10.65 133.7-11.15ZM129.75 7L129.75 7Q132.75 7 135.63 5.8 138.5 4.6 139.75 2.45L139.75 2.45Q136.1 0.6 127.95-0.4L127.95-0.4Q124.2 2.3 124.2 4.2L124.2 4.2Q124.2 5.5 125.75 6.25 127.3 7 129.75 7ZM169.8-4.2L170.4-2 164.85 0.8Q163.9 0.7 162.65-0.33 161.4-1.35 160.75-2.75L160.75-2.75 155.25 0.7 153.9 0.8Q150.85 0.8 148.88-1 146.9-2.8 146.9-5.35L146.9-5.35Q146.9-8.95 150.6-10.9L150.6-10.9 160.25-11.15 160.25-15.95Q160.25-19.95 157.85-21.2L157.85-21.2Q155.2-21.1 153.15-20.4L153.15-20.4 152.5-15.1 149.1-14.95Q147.75-17.75 147.85-21.45L147.85-21.45Q150.3-22.7 154.08-23.75 157.85-24.8 159.6-24.8L159.6-24.8Q161.3-24.8 162.98-23.73 164.65-22.65 165.55-21.25L165.55-21.25Q166.1-20.25 166.15-17.45L166.15-17.45 166.15-4.9Q166.15-3.85 167.4-3.85L167.4-3.85 169.8-4.2ZM154.05-3.3L154.05-3.3Q156.45-3.3 160.25-4.8L160.25-4.8 160.25-8.4 158.5-8.45Q152.9-8.45 152.9-5.55L152.9-5.55Q152.9-4.1 154.05-3.3ZM182.9-4.1L182.9-4.1Q184.25-4.1 187.3-5.05L187.3-5.05 187.95-2.65 180.9 0.8Q178.9 0.9 177.1-0.6 175.3-2.1 175.3-3.9L175.3-3.9 175.3-19.15 172.05-19.1 171.75-21.6Q173.8-22.75 175.55-23.35L175.55-23.35 177.75-29.75 180.65-29.75 181.05-23.5 188.05-23.5 188.2-21.7 185.8-19.05 181.15-19.05 181.15-6.65Q181.15-5.25 181.53-4.67 181.9-4.1 182.9-4.1ZM208.65-12.4L195.9-12.6Q195.9-8.35 198.13-6 200.35-3.65 203.8-3.65L203.8-3.65Q206.5-3.65 210.2-5.35L210.2-5.35 211.1-3 203.3 0.7Q197.5 1 193.78-2.45 190.05-5.9 190.05-11.45L190.05-11.45Q190.05-16.85 193.53-20.73 197-24.6 201.95-24.6L201.95-24.6Q206.15-24.6 208.88-21.98 211.6-19.35 211.55-15.2L211.55-15.2 208.65-12.4ZM199.8-21.2L199.8-21.2Q197.15-19.7 196.25-15.6L196.25-15.6 206-16.1Q205.6-18.4 203.88-19.83 202.15-21.25 199.8-21.2ZM250.4-23.6L250.65-21.55 247.8-20.35 241.5-0.3Q239.45 0.35 237.05 0.35L237.05 0.35Q235.65 0.35 234.8 0.15L234.8 0.15 231.45-9.5 231.3-8.8 227.75-0.3Q226.05 0.3 223.45 0.3L223.45 0.3 221.15 0.15 214.6-20.25 211.75-21.05 211.8-23.6 223.15-23.6 223.4-21.55 220.75-20.4 224-9.55 225.2-4.25 225.6-4.25 229.55-15 226.95-22.4 232.65-23.3 237.25-9.55 238.2-4.25 238.55-4.25 242.2-20.4 239.2-21.05 239.25-23.6 250.4-23.6ZM274.5-4.2L275.1-2 269.55 0.8Q268.6 0.7 267.35-0.33 266.1-1.35 265.45-2.75L265.45-2.75 259.95 0.7 258.6 0.8Q255.55 0.8 253.58-1 251.6-2.8 251.6-5.35L251.6-5.35Q251.6-8.95 255.3-10.9L255.3-10.9 264.95-11.15 264.95-15.95Q264.95-19.95 262.55-21.2L262.55-21.2Q259.9-21.1 257.85-20.4L257.85-20.4 257.2-15.1 253.8-14.95Q252.45-17.75 252.55-21.45L252.55-21.45Q255-22.7 258.78-23.75 262.55-24.8 264.3-24.8L264.3-24.8Q266-24.8 267.68-23.73 269.35-22.65 270.25-21.25L270.25-21.25Q270.8-20.25 270.85-17.45L270.85-17.45 270.85-4.9Q270.85-3.85 272.1-3.85L272.1-3.85 274.5-4.2ZM258.75-3.3L258.75-3.3Q261.15-3.3 264.95-4.8L264.95-4.8 264.95-8.4 263.2-8.45Q257.6-8.45 257.6-5.55L257.6-5.55Q257.6-4.1 258.75-3.3ZM301.05-23.6L301.3-21.55 298.35-20.35Q295.15-9.55 292.75-3.25L292.75-3.25Q290.85 1.35 287.93 4.83 285 8.3 280.4 10.95L280.4 10.95 277.25 5.45Q283.55 3.2 286.95 0L286.95 0Q285.1-0.6 283.75-1.6L283.75-1.6 277-20.2 273.95-21.05 274-23.6 285.85-23.6 286.1-21.55 283.35-20.4 286.7-9.9 287.4-4.85 288.3-4.85Q290.65-11.55 292.45-20.45L292.45-20.45 289.65-21.05 289.7-23.6 301.05-23.6ZM325.95-4.1L325.95-4.1Q327.3-4.1 330.35-5.05L330.35-5.05 331-2.65 323.95 0.8Q321.95 0.9 320.15-0.6 318.35-2.1 318.35-3.9L318.35-3.9 318.35-19.15 315.1-19.1 314.8-21.6Q316.85-22.75 318.6-23.35L318.6-23.35 320.8-29.75 323.7-29.75 324.1-23.5 331.1-23.5 331.25-21.7 328.85-19.05 324.2-19.05 324.2-6.65Q324.2-5.25 324.58-4.67 324.95-4.1 325.95-4.1ZM333.1-11.9L333.1-11.9Q333.1-17.5 336.43-21.05 339.75-24.6 344.8-24.6 349.85-24.6 353.08-21.03 356.3-17.45 356.3-11.65L356.3-11.65Q356.3-5.9 353.13-2.45 349.95 1 344.95 1L344.95 1Q339.8 1 336.45-2.63 333.1-6.25 333.1-11.9ZM347.5-3L347.5-3Q350.25-4.85 350.25-11.1L350.25-11.1Q350.25-15.4 348.83-18.18 347.4-20.95 344.45-20.95L344.45-20.95Q342.55-20.95 341.25-20L341.25-20Q339.2-17.45 339.2-12.25L339.2-12.25Q339.2-8.15 340.75-5.4 342.3-2.65 345.4-2.65L345.4-2.65Q346.4-2.65 347.5-3ZM382.5-4.1L382.5-4.1Q383.85-4.1 386.9-5.05L386.9-5.05 387.55-2.65 380.5 0.8Q378.5 0.9 376.7-0.6 374.9-2.1 374.9-3.9L374.9-3.9 374.9-19.15 371.65-19.1 371.35-21.6Q373.4-22.75 375.15-23.35L375.15-23.35 377.35-29.75 380.25-29.75 380.65-23.5 387.65-23.5 387.8-21.7 385.4-19.05 380.75-19.05 380.75-6.65Q380.75-5.25 381.13-4.67 381.5-4.1 382.5-4.1ZM414.65-16.4L414.65-3.6Q416.95-3.1 418.25-2.4L418.25-2.4 418.05 0 406.2 0 406-1.7 408.8-2.85 408.8-14.6Q408.8-19.75 405.65-19.75L405.65-19.75Q403.55-19.75 399.5-17.2L399.5-17.2 399.5-3.55Q401.55-3 402.6-2.4L402.6-2.4 402.4 0 390.1 0 389.9-1.7Q391.45-2.45 393.65-3.15L393.65-3.15 393.65-32.65 389.9-32.75 389.4-35.15Q392.85-36.55 397.25-36.8L397.25-36.8 399.5-34.8 399.5-19.6Q405.35-23.85 408.65-24.4L408.65-24.4Q410.15-24.2 411.68-23.25 413.2-22.3 414-20.95L414-20.95Q414.6-19.85 414.65-16.4L414.65-16.4ZM437.75-12.4L425-12.6Q425-8.35 427.23-6 429.45-3.65 432.9-3.65L432.9-3.65Q435.6-3.65 439.3-5.35L439.3-5.35 440.2-3 432.4 0.7Q426.6 1 422.88-2.45 419.15-5.9 419.15-11.45L419.15-11.45Q419.15-16.85 422.63-20.73 426.1-24.6 431.05-24.6L431.05-24.6Q435.25-24.6 437.98-21.98 440.7-19.35 440.65-15.2L440.65-15.2 437.75-12.4ZM428.9-21.2L428.9-21.2Q426.25-19.7 425.35-15.6L425.35-15.6 435.1-16.1Q434.7-18.4 432.98-19.83 431.25-21.25 428.9-21.2ZM462.15-18.7L462.15-18.7Q462.15-17.2 463.4-16.28 464.65-15.35 467.25-14.2L467.25-14.2 470.6-12.5Q474.55-10.25 474.55-6.4L474.55-6.4Q474.55-3.15 472-1.07 469.45 1 465.4 1L465.4 1Q460.8 1 456-1.65L456-1.65 458.2-6.75Q462.7-3.5 467.8-2.5L467.8-2.5Q469-3.55 469-5.05L469-5.05Q469-6.45 467.98-7.43 466.95-8.4 463.2-10.1 459.45-11.8 458.1-13.43 456.75-15.05 456.75-17.2L456.75-17.2Q456.75-20.6 459.65-22.6 462.55-24.6 466.75-24.6L466.75-24.6Q470.6-24.6 473.6-23.05L473.6-23.05 473.65-23.05 473.7-21.85Q473.7-19.05 472.8-16.4L472.8-16.4 469.55-16.4 468.8-20.6Q466.15-21.45 463.85-21.3L463.85-21.3Q462.15-20.4 462.15-18.7ZM488.35-4.1L488.35-4.1Q489.7-4.1 492.75-5.05L492.75-5.05 493.4-2.65 486.35 0.8Q484.35 0.9 482.55-0.6 480.75-2.1 480.75-3.9L480.75-3.9 480.75-19.15 477.5-19.1 477.2-21.6Q479.25-22.75 481-23.35L481-23.35 483.2-29.75 486.1-29.75 486.5-23.5 493.5-23.5 493.65-21.7 491.25-19.05 486.6-19.05 486.6-6.65Q486.6-5.25 486.98-4.67 487.35-4.1 488.35-4.1ZM519.7-4.2L520.3-2 514.75 0.8Q513.8 0.7 512.55-0.33 511.3-1.35 510.65-2.75L510.65-2.75 505.15 0.7 503.8 0.8Q500.75 0.8 498.78-1 496.8-2.8 496.8-5.35L496.8-5.35Q496.8-8.95 500.5-10.9L500.5-10.9 510.15-11.15 510.15-15.95Q510.15-19.95 507.75-21.2L507.75-21.2Q505.1-21.1 503.05-20.4L503.05-20.4 502.4-15.1 499-14.95Q497.65-17.75 497.75-21.45L497.75-21.45Q500.2-22.7 503.98-23.75 507.75-24.8 509.5-24.8L509.5-24.8Q511.2-24.8 512.88-23.73 514.55-22.65 515.45-21.25L515.45-21.25Q516-20.25 516.05-17.45L516.05-17.45 516.05-4.9Q516.05-3.85 517.3-3.85L517.3-3.85 519.7-4.2ZM503.95-3.3L503.95-3.3Q506.35-3.3 510.15-4.8L510.15-4.8 510.15-8.4 508.4-8.45Q502.8-8.45 502.8-5.55L502.8-5.55Q502.8-4.1 503.95-3.3ZM541.95-23.05L541.95-23.05Q542.05-18.75 540.6-14.25L540.6-14.25 537.35-14.25 536.55-19.85Q533.15-17.6 530.65-14.45L530.65-14.45 530.65-3.75Q534.4-3.25 535.85-2.4L535.85-2.4 535.65 0 521.3 0 521.1-1.7Q522.7-2.5 524.8-3.15L524.8-3.15 524.8-20.35 521.05-20.4 520.55-22.8Q524-24.2 528.4-24.45L528.4-24.45 530.65-22.45 530.65-18.2 535.75-23.75Q536.95-24.25 538.3-24.25L538.3-24.25Q540.45-24.25 541.95-23.05ZM549.65-18.7L549.65-18.7Q549.65-17.2 550.9-16.28 552.15-15.35 554.75-14.2L554.75-14.2 558.1-12.5Q562.05-10.25 562.05-6.4L562.05-6.4Q562.05-3.15 559.5-1.07 556.95 1 552.9 1L552.9 1Q548.3 1 543.5-1.65L543.5-1.65 545.7-6.75Q550.2-3.5 555.3-2.5L555.3-2.5Q556.5-3.55 556.5-5.05L556.5-5.05Q556.5-6.45 555.48-7.43 554.45-8.4 550.7-10.1 546.95-11.8 545.6-13.43 544.25-15.05 544.25-17.2L544.25-17.2Q544.25-20.6 547.15-22.6 550.05-24.6 554.25-24.6L554.25-24.6Q558.1-24.6 561.1-23.05L561.1-23.05 561.15-23.05 561.2-21.85Q561.2-19.05 560.3-16.4L560.3-16.4 557.05-16.4 556.3-20.6Q553.65-21.45 551.35-21.3L551.35-21.3Q549.65-20.4 549.65-18.7ZM572.35 1.8L572.35 1.8Q569.65 0.65 568.3-1.35L568.3-1.35Q569.8-4.35 571.6-5.35L571.6-5.35Q573.7-4.5 575.5-2.2L575.5-2.2Q574.6 0.25 572.35 1.8Z" opacity="1" transform="matrix(1,0,0,1,0,0)" fill="#ffffff" class="slogan-text-1" data-fill-palette-color="secondary" id="text-1"></path></svg></g></svg></g></svg></g></svg></g><g transform="matrix(1,0,0,1,36.672,0)"><svg viewBox="0 0 118.656 110.04472356893345" height="110.04472356893345" width="118.656"><g><svg xmlns="http://www.w3.org/2000/svg" xmlns:xlink="http://www.w3.org/1999/xlink" version="1.1" x="0" y="0" viewBox="17.523595809936523 19.46177864074707 59.776405334472656 55.43822479248047" style="enable-background:new 0 0 91 91;" xml:space="preserve" height="110.04472356893345" width="118.656" class="icon-icon-0" data-fill-palette-color="accent" id="icon-0"><g fill="#374151" data-fill-palette-color="accent"><path d="M29.6 58.9c6.5 0 11.8-5.3 11.8-11.8 0-6.5-5.3-11.8-11.8-11.8-6.5 0-11.8 5.3-11.8 11.8C17.8 53.6 23.1 58.9 29.6 58.9z" fill="#ffffff" data-fill-palette-color="accent"></path><path d="M57.8 47.1c0-3.5-2.7-6.4-6.2-6.7C48.8 30.7 39.9 24 29.6 24c-3.9 0-7.8 1-11.2 2.9-0.8 0.5-1.1 1.5-0.7 2.3 0.5 0.8 1.5 1.1 2.3 0.7 2.9-1.6 6.2-2.5 9.6-2.5 8.6 0 16.1 5.5 18.8 13.6-2.3 1.1-4 3.4-4 6.1 0 2.7 1.6 5.1 4 6.1-2.6 8.1-10.1 13.6-18.7 13.6-3.4 0-6.7-0.9-9.6-2.5-0.8-0.5-1.8-0.2-2.3 0.7-0.5 0.8-0.2 1.8 0.7 2.3 3.4 1.9 7.3 2.9 11.2 2.9 10.3 0 19.2-6.7 22.1-16.4C55.1 53.5 57.8 50.6 57.8 47.1z" fill="#ffffff" data-fill-palette-color="accent"></path><path d="M65.9 43.2c-0.5-5-2-9.7-4.5-14.1-2-3.5-4.5-6.6-7.5-9.2-0.7-0.6-1.8-0.6-2.4 0.1-0.6 0.7-0.6 1.8 0.1 2.4 2.7 2.4 5 5.2 6.8 8.4 2.2 3.9 3.6 8.2 4.1 12.7-1.3 0.7-2.2 2.1-2.2 3.7 0 1.6 0.9 3 2.2 3.7-0.9 8.1-4.7 15.6-10.9 21-0.7 0.6-0.8 1.7-0.1 2.4 0.3 0.4 0.8 0.6 1.3 0.6 0.4 0 0.8-0.1 1.1-0.4 6.8-6.1 11-14.3 12-23.3 1.6-0.6 2.8-2.1 2.8-4C68.7 45.3 67.5 43.7 65.9 43.2z" fill="#ffffff" data-fill-palette-color="accent"></path><path d="M74.5 44.3c-1.5 0-2.8 1.3-2.8 2.8 0 1.5 1.3 2.8 2.8 2.8s2.8-1.3 2.8-2.8C77.3 45.6 76 44.3 74.5 44.3z" fill="#ffffff" data-fill-palette-color="accent"></path></g></svg></g></svg></g><g></g></svg></g></svg></g></svg></g></svg></g><defs></defs></svg><rect width="320" height="360" fill="none" stroke="none" visibility="hidden"></rect></g></svg></g></svg>